<svg width="13" height="13" viewBox="0 0 13 13" fill="none" xmlns="http://www.w3.org/2000/svg">
<path d="M10.1328 4.4457C10.0312 4.34416 9.89348 4.28711 9.74985 4.28711C9.60622 4.28711 9.46847 4.34416 9.3669 4.4457L6.88281 6.92979C6.77982 7.02863 6.6426 7.08383 6.49985 7.08383C6.3571 7.08383 6.21988 7.02863 6.1169 6.92979L3.63281 4.4457C3.53065 4.34703 3.39383 4.29244 3.2518 4.29367C3.10978 4.2949 2.97392 4.35187 2.87349 4.4523C2.77307 4.55273 2.7161 4.68859 2.71486 4.83061C2.71363 4.97263 2.76823 5.10946 2.8669 5.21162L5.35044 7.6957C5.50134 7.84663 5.68049 7.96635 5.87766 8.04803C6.07483 8.12971 6.28616 8.17175 6.49958 8.17175C6.713 8.17175 6.92434 8.12971 7.12151 8.04803C7.31868 7.96635 7.49783 7.84663 7.64873 7.6957L10.1328 5.21162C10.2344 5.11004 10.2914 4.97229 10.2914 4.82866C10.2914 4.68503 10.2344 4.54728 10.1328 4.4457Z" fill="#485466"/>
</svg>
